<svg width="656.91" height="67.231" viewBox="0 0 656.91 67.231" xmlns="http://www.w3.org/2000/svg"><g id="svgGroup" stroke-linecap="round" fill-rule="evenodd" font-size="9pt" stroke="#f5f5f5" stroke-width="0.25mm" fill="#fafafa" style="stroke:#f5f5f5;stroke-width:0.25mm;fill:#fafafa"><path d="M 45.81 38.25 L 52.74 29.43 A 71.756 71.756 0 0 1 54.9 26.749 Q 55.935 25.52 57.15 24.166 A 157.461 157.461 0 0 1 59.76 21.33 Q 63.55 17.308 68.536 12.356 A 568.946 568.946 0 0 1 70.2 10.71 Q 72.81 8.19 76.14 6.39 A 20.751 20.751 0 0 1 78.101 5.451 Q 80.175 4.597 81.783 4.59 A 6.115 6.115 0 0 1 81.81 4.59 A 4.409 4.409 0 0 1 83.112 4.766 Q 84.543 5.208 84.917 6.766 A 5.337 5.337 0 0 1 85.05 8.01 Q 85.05 10.52 83.314 14.574 A 44.737 44.737 0 0 1 82.62 16.11 A 278.083 278.083 0 0 1 79.962 21.557 Q 78.76 23.958 77.399 26.579 A 508.351 508.351 0 0 1 74.52 32.04 A 34.697 34.697 0 0 0 73.585 33.863 Q 73.171 34.738 72.876 35.515 A 14.271 14.271 0 0 0 72.45 36.81 Q 71.91 38.79 71.73 39.06 A 26.69 26.69 0 0 1 71.902 38.849 Q 72.335 38.319 73.401 37.045 A 689.961 689.961 0 0 1 73.485 36.945 Q 74.553 35.67 76.281 33.683 A 537.756 537.756 0 0 1 77.4 32.4 Q 80.03 29.461 83.524 26.024 A 201.078 201.078 0 0 1 84.69 24.885 Q 88.92 20.79 94.41 16.11 L 108.81 4.23 A 9.121 9.121 0 0 1 109.744 3.534 Q 110.816 2.844 111.729 2.794 A 2.588 2.588 0 0 1 111.87 2.79 Q 113.13 2.79 113.715 4.275 Q 114.3 5.76 114.93 8.1 A 1.013 1.013 0 0 1 114.969 8.379 Q 114.982 10.015 110.723 14.375 A 65.44 65.44 0 0 1 110.61 14.49 Q 99.36 26.01 91.17 40.23 Q 83.97 52.895 83.71 58.787 A 9.804 9.804 0 0 0 83.7 59.22 A 5.965 5.965 0 0 0 83.76 60.107 Q 83.932 61.244 84.595 61.631 A 1.59 1.59 0 0 0 85.41 61.83 A 2.782 2.782 0 0 0 85.983 61.752 Q 87.356 61.449 90.754 59.965 A 102.26 102.26 0 0 0 90.81 59.94 A 113.89 113.89 0 0 1 92.339 59.261 Q 94.368 58.379 95.354 58.073 A 5.758 5.758 0 0 1 95.76 57.96 Q 96.21 58.14 96.21 58.41 A 1.264 1.264 0 0 1 95.93 59.127 Q 95.266 60.054 93.023 61.339 A 36.962 36.962 0 0 1 91.44 62.19 Q 86.76 64.62 83.61 64.62 Q 82.134 64.62 81.555 63.948 A 1.401 1.401 0 0 1 81.45 63.81 Q 79.83 61.47 79.83 58.14 A 21.019 21.019 0 0 1 80.485 53.253 Q 81.696 48.243 85.143 41.41 A 120.711 120.711 0 0 1 88.11 35.91 Q 93.42 26.82 104.49 11.43 Q 99.81 15.3 94.32 20.34 Q 88.83 25.38 82.53 31.5 A 303.091 303.091 0 0 0 76.812 37.236 Q 74.606 39.512 72.694 41.599 A 148.719 148.719 0 0 0 69.165 45.585 A 125.669 125.669 0 0 0 66.76 48.491 Q 63.428 52.65 61.74 55.62 A 12.387 12.387 0 0 1 60.468 57.52 Q 58.542 59.85 56.07 59.85 A 3.21 3.21 0 0 1 55.531 59.809 Q 54.54 59.639 54.54 58.77 A 1.043 1.043 0 0 1 54.635 58.343 Q 54.696 58.206 54.797 58.069 A 1.85 1.85 0 0 1 54.81 58.05 A 266.634 266.634 0 0 0 55.631 56.737 Q 56.948 54.619 58.77 51.615 Q 61.2 47.61 64.53 42.03 Q 72.542 28.084 76.823 18.846 A 122.137 122.137 0 0 0 78.48 15.12 A 40.884 40.884 0 0 0 79.145 13.372 Q 80.01 10.916 80.01 9.63 A 3.101 3.101 0 0 0 79.972 9.123 Q 79.822 8.222 79.074 8.191 A 1.307 1.307 0 0 0 79.02 8.19 A 2.4 2.4 0 0 0 78.222 8.352 Q 77.053 8.772 75.196 10.284 A 30.136 30.136 0 0 0 74.79 10.62 A 125.636 125.636 0 0 0 67.041 17.737 Q 63.188 21.561 59.031 26.206 A 280.442 280.442 0 0 0 52.38 33.93 A 290.27 290.27 0 0 0 47.486 39.904 A 211.242 211.242 0 0 0 43.245 45.405 A 205.226 205.226 0 0 0 40.052 49.814 Q 38.149 52.521 36.63 54.9 Q 34.673 57.918 34.489 59.384 A 2.312 2.312 0 0 0 34.47 59.67 A 1.118 1.118 0 0 0 34.508 59.97 A 0.739 0.739 0 0 0 34.875 60.435 L 35.28 60.66 Q 35.28 60.739 34.047 61.708 A 97.739 97.739 0 0 1 33.66 62.01 A 6.853 6.853 0 0 1 31.244 62.691 A 8.415 8.415 0 0 1 30.42 62.73 A 12.168 12.168 0 0 1 29.409 62.692 Q 26.811 62.474 27.27 61.02 A 17.431 17.431 0 0 1 28.101 58.934 Q 29.751 55.369 33.87 49.032 A 235.895 235.895 0 0 1 35.64 46.35 A 880.516 880.516 0 0 0 39.386 40.744 Q 44.442 33.107 46.812 29.089 A 65.985 65.985 0 0 0 47.7 27.54 Q 52.736 18.447 53.566 12.428 A 16.542 16.542 0 0 0 53.73 10.17 A 13.585 13.585 0 0 0 53.55 7.875 Q 53.081 5.146 51.39 3.78 Q 49.05 1.89 44.28 1.89 Q 33.75 1.89 22.5 10.98 Q 17.64 14.94 13.41 19.935 A 51.003 51.003 0 0 0 8.024 27.573 A 45.075 45.075 0 0 0 6.57 30.33 A 27.069 27.069 0 0 0 4.543 35.975 A 21.906 21.906 0 0 0 3.96 40.95 A 14.355 14.355 0 0 0 4.378 44.583 Q 5.881 50.31 12.78 50.31 A 22.873 22.873 0 0 0 19.817 49.282 A 17.99 17.99 0 0 0 28.8 42.84 Q 30.325 40.743 30.774 38.826 A 6.863 6.863 0 0 0 30.96 37.26 Q 30.96 36.384 30.665 35.832 A 1.628 1.628 0 0 0 30.06 35.19 Q 29.986 35.116 29.973 34.979 A 0.633 0.633 0 0 1 29.97 34.92 A 0.33 0.33 0 0 1 30.022 34.731 Q 30.109 34.603 30.342 34.571 A 1.247 1.247 0 0 1 30.51 34.56 A 2.51 2.51 0 0 1 31.575 34.77 Q 32.639 35.263 32.815 36.918 A 6.646 6.646 0 0 1 32.85 37.62 A 5.837 5.837 0 0 1 32.667 39.002 Q 32.357 40.27 31.519 41.861 A 21.953 21.953 0 0 1 31.23 42.39 A 16.004 16.004 0 0 1 27.622 46.65 A 20.807 20.807 0 0 1 25.02 48.51 Q 19.8 51.75 13.5 51.75 A 15.667 15.667 0 0 1 9.09 51.16 A 11.973 11.973 0 0 1 3.69 47.88 A 13.117 13.117 0 0 1 0.268 40.93 A 18.545 18.545 0 0 1 0 37.71 A 25.214 25.214 0 0 1 3.179 25.826 Q 7.391 17.88 17.187 9.744 A 98.181 98.181 0 0 1 18.54 8.64 A 30.527 30.527 0 0 1 23.061 5.704 A 38.939 38.939 0 0 1 26.685 4.005 Q 31.41 2.07 36.45 1.035 A 53.72 53.72 0 0 1 41.288 0.259 A 39.993 39.993 0 0 1 45.72 0 A 29.773 29.773 0 0 1 49.096 0.179 Q 52.789 0.601 55.035 2.025 A 6.459 6.459 0 0 1 57.781 5.734 Q 58.132 6.88 58.209 8.284 A 14.775 14.775 0 0 1 58.23 9.09 Q 58.23 15.39 53.1 26.1 A 39.164 39.164 0 0 1 52.118 27.963 Q 50.612 30.669 47.715 35.262 A 418.89 418.89 0 0 1 45.81 38.25 Z M 488.25 67.23 Q 486 67.23 485.235 65.07 A 12.982 12.982 0 0 1 484.479 61.223 A 12.206 12.206 0 0 1 484.47 60.75 A 21.019 21.019 0 0 1 485.125 55.863 Q 486.336 50.853 489.783 44.02 A 120.711 120.711 0 0 1 492.75 38.52 Q 498.06 29.43 509.13 14.04 A 25.506 25.506 0 0 0 501.432 16.145 Q 494.254 19.228 485.243 26.681 A 151.535 151.535 0 0 0 478.17 32.94 A 229.267 229.267 0 0 0 469.621 41.438 Q 461.066 50.436 456.66 57.51 Q 454.703 60.528 454.519 61.994 A 2.312 2.312 0 0 0 454.5 62.28 Q 454.5 62.91 454.905 63.09 L 455.31 63.27 A 0.191 0.191 0 0 1 455.253 63.37 Q 455.046 63.608 454.099 64.274 A 45.613 45.613 0 0 1 453.6 64.62 Q 452.463 65.27 450.813 65.333 A 9.451 9.451 0 0 1 450.45 65.34 A 12.767 12.767 0 0 1 449.411 65.302 Q 446.889 65.094 447.171 63.777 A 1.604 1.604 0 0 1 447.21 63.63 A 17.399 17.399 0 0 1 448.041 61.579 Q 450.025 57.347 455.58 49.05 A 880.516 880.516 0 0 0 459.326 43.444 Q 464.382 35.807 466.752 31.789 A 65.985 65.985 0 0 0 467.64 30.24 Q 473.76 19.26 473.76 12.87 A 14.35 14.35 0 0 0 473.609 10.706 Q 473.183 7.923 471.555 6.66 A 7.439 7.439 0 0 0 469.126 5.44 Q 468.116 5.134 466.909 5.019 A 16.052 16.052 0 0 0 465.39 4.95 A 27.227 27.227 0 0 0 455.407 6.964 Q 451.543 8.481 447.522 11.141 A 61.941 61.941 0 0 0 442.62 14.76 Q 437.67 18.81 433.44 23.715 A 51.879 51.879 0 0 0 428.438 30.528 A 44.57 44.57 0 0 0 426.6 33.84 Q 423.99 39.06 423.99 44.1 Q 423.99 51.535 429.922 52.705 A 12.158 12.158 0 0 0 432 52.92 A 30.849 30.849 0 0 0 432.746 52.929 Q 436.392 52.929 439.431 52.046 A 17.369 17.369 0 0 0 448.83 45.45 Q 450.355 43.353 450.804 41.436 A 6.863 6.863 0 0 0 450.99 39.87 A 3.663 3.663 0 0 0 450.92 39.127 Q 450.831 38.698 450.629 38.383 A 1.703 1.703 0 0 0 450 37.8 Q 449.926 37.726 449.913 37.589 A 0.633 0.633 0 0 1 449.91 37.53 A 0.33 0.33 0 0 1 449.962 37.341 Q 450.049 37.213 450.282 37.181 A 1.247 1.247 0 0 1 450.45 37.17 A 2.51 2.51 0 0 1 451.515 37.38 Q 452.579 37.873 452.755 39.528 A 6.646 6.646 0 0 1 452.79 40.23 Q 452.79 41.944 451.533 44.471 A 22.389 22.389 0 0 1 451.26 45 A 17.052 17.052 0 0 1 445.561 50.832 A 21.356 21.356 0 0 1 443.79 51.84 Q 438.84 54.36 433.53 54.36 Q 427.68 54.36 424.17 50.85 A 11.717 11.717 0 0 1 420.953 44.631 A 16.979 16.979 0 0 1 420.66 41.4 A 24.319 24.319 0 0 1 423.599 30.212 Q 427.643 22.363 437.252 14.098 A 104.054 104.054 0 0 1 439.92 11.88 Q 443.16 9.27 447.84 7.2 Q 452.52 5.13 457.515 3.96 Q 462.51 2.79 466.74 2.79 A 22.581 22.581 0 0 1 470.059 3.019 Q 473.093 3.471 475.155 4.815 Q 478.005 6.674 478.239 10.998 A 14.678 14.678 0 0 1 478.26 11.79 Q 478.26 17.476 474.128 26.438 A 89.324 89.324 0 0 1 473.04 28.71 Q 471.87 31.05 470.07 34.11 A 134.129 134.129 0 0 1 468.146 37.275 Q 467.108 38.933 465.917 40.743 A 215.043 215.043 0 0 1 465.84 40.86 A 36.089 36.089 0 0 1 467.806 38.61 Q 469.869 36.418 472.949 33.679 A 144.004 144.004 0 0 1 474.93 31.95 A 253.076 253.076 0 0 1 484.525 24.249 Q 490.483 19.713 495.9 16.245 Q 503.743 11.224 510.452 8.382 A 62.087 62.087 0 0 1 513.45 7.2 Q 514.26 6.84 515.25 6.84 Q 518.67 6.84 519.57 10.71 A 1.013 1.013 0 0 1 519.609 10.989 Q 519.622 12.625 515.363 16.985 A 65.44 65.44 0 0 1 515.25 17.1 Q 504 28.62 495.81 42.84 A 122.253 122.253 0 0 0 492.719 48.604 Q 488.34 57.372 488.34 61.92 A 5.496 5.496 0 0 0 488.405 62.808 Q 488.663 64.375 489.942 64.438 A 2.213 2.213 0 0 0 490.05 64.44 A 2.782 2.782 0 0 0 490.623 64.362 Q 491.996 64.059 495.394 62.575 A 102.26 102.26 0 0 0 495.45 62.55 A 113.89 113.89 0 0 1 496.979 61.871 Q 499.008 60.989 499.994 60.683 A 5.758 5.758 0 0 1 500.4 60.57 Q 500.85 60.75 500.85 61.02 A 1.264 1.264 0 0 1 500.57 61.737 Q 499.906 62.664 497.663 63.949 A 36.962 36.962 0 0 1 496.08 64.8 Q 491.4 67.23 488.25 67.23 Z M 215.01 43.56 L 209.61 49.23 L 208.53 50.31 Q 207.652 51.189 207.116 51.21 A 0.664 0.664 0 0 1 207.09 51.21 A 0.447 0.447 0 0 1 206.873 51.161 Q 206.689 51.06 206.651 50.757 A 1.398 1.398 0 0 1 206.64 50.58 A 0.674 0.674 0 0 1 206.653 50.458 Q 206.681 50.304 206.775 50.085 A 1.383 1.383 0 0 1 206.888 49.878 Q 207.049 49.631 207.36 49.32 Q 208.71 47.97 210.15 46.44 Q 211.59 44.91 213.12 42.93 A 129.189 129.189 0 0 0 213.77 42.072 Q 214.507 41.092 215.518 39.717 A 567.892 567.892 0 0 0 216.495 38.385 A 355.007 355.007 0 0 0 217.662 36.779 Q 219.451 34.305 221.784 31.001 A 993.377 993.377 0 0 0 221.94 30.78 A 3.173 3.173 0 0 1 224.24 29.457 A 4.381 4.381 0 0 1 224.73 29.43 A 2.736 2.736 0 0 1 225.431 29.512 Q 226.326 29.75 226.492 30.68 A 2.62 2.62 0 0 1 226.53 31.14 A 0.908 0.908 0 0 1 226.458 31.409 Q 226.029 32.546 223.026 37.669 A 419.077 419.077 0 0 1 221.94 39.51 A 559.855 559.855 0 0 0 220.829 41.485 Q 219.251 44.303 218.205 46.26 A 50.76 50.76 0 0 0 217.572 47.481 Q 217 48.626 216.69 49.428 A 8.336 8.336 0 0 0 216.45 50.13 Q 218.43 47.97 221.175 45.27 A 237.254 237.254 0 0 1 223.936 42.601 Q 225.399 41.208 227.046 39.68 A 398.488 398.488 0 0 1 227.52 39.24 A 149.592 149.592 0 0 1 231.406 35.753 Q 239.248 28.98 242.1 28.98 A 3.253 3.253 0 0 1 243.53 29.32 A 4.234 4.234 0 0 1 244.035 29.61 Q 244.98 30.24 244.98 31.23 Q 244.98 31.623 242.301 36.345 A 369.381 369.381 0 0 1 241.47 37.8 A 315.866 315.866 0 0 0 240.295 39.952 Q 238.268 43.702 237.793 44.895 A 3.884 3.884 0 0 0 237.69 45.18 A 4055.539 4055.539 0 0 0 240.032 43.217 Q 247.477 36.969 247.675 36.729 A 0.021 0.021 0 0 0 247.68 36.72 A 78.993 78.993 0 0 1 251.153 34.16 Q 256.25 30.633 259.094 30.208 A 4.996 4.996 0 0 1 259.83 30.15 A 3.379 3.379 0 0 1 261.706 30.723 A 4.179 4.179 0 0 1 261.855 30.825 Q 262.53 31.307 262.723 31.904 A 1.603 1.603 0 0 1 262.8 32.4 Q 262.8 32.557 258.442 38.161 A 1295.845 1295.845 0 0 1 257.04 39.96 A 60.063 60.063 0 0 0 254.253 43.738 Q 250.909 48.697 250.38 52.2 Q 250.051 55.167 253.116 55.417 A 7.307 7.307 0 0 0 253.71 55.44 A 5.038 5.038 0 0 0 255.118 55.212 Q 256.504 54.805 258.346 53.669 A 30.668 30.668 0 0 0 260.01 52.56 A 38.938 38.938 0 0 0 263.59 49.657 Q 265.972 47.495 268.47 44.64 Q 269.01 44.01 269.64 43.425 A 3.805 3.805 0 0 1 269.944 43.169 Q 270.266 42.928 270.533 42.864 A 0.799 0.799 0 0 1 270.72 42.84 A 0.947 0.947 0 0 1 270.921 42.86 Q 271.26 42.933 271.26 43.29 Q 271.26 43.92 270.45 44.73 A 56.548 56.548 0 0 1 267.896 47.565 A 74.158 74.158 0 0 1 264.915 50.49 A 50.483 50.483 0 0 1 261.335 53.532 A 40.132 40.132 0 0 1 258.57 55.485 A 17.199 17.199 0 0 1 256.672 56.553 Q 254.661 57.51 252.99 57.51 A 9.58 9.58 0 0 1 250.643 57.249 Q 247.593 56.475 247.009 53.418 A 8.413 8.413 0 0 1 246.87 51.84 A 9.007 9.007 0 0 1 247.045 50.138 Q 247.305 48.792 247.95 47.205 Q 249.03 44.55 250.11 42.39 A 60.38 60.38 0 0 1 253.368 36.818 A 48.935 48.935 0 0 1 255.78 33.48 A 34.219 34.219 0 0 0 252.657 35.264 A 45.444 45.444 0 0 0 249.795 37.26 A 68.199 68.199 0 0 0 246.231 40.149 A 87.264 87.264 0 0 0 243.36 42.75 Q 235.62 50.31 232.74 58.05 Q 232.299 58.756 231.252 58.77 A 3.185 3.185 0 0 1 231.21 58.77 A 2.742 2.742 0 0 1 230.316 58.637 Q 229.05 58.201 229.05 56.34 A 36.109 36.109 0 0 1 230.254 51.863 Q 230.994 49.649 232.062 47.235 A 69.087 69.087 0 0 1 233.1 45 Q 234.54 41.94 236.025 38.97 Q 237.51 36 238.95 32.94 Q 235.62 35.19 232.29 37.935 A 64.152 64.152 0 0 0 226.799 43.048 A 71.959 71.959 0 0 0 225.81 44.1 Q 222.12 48.06 217.26 54.27 Q 213.75 58.68 213.21 58.68 A 2.331 2.331 0 0 1 211.404 57.847 A 3.493 3.493 0 0 1 211.14 57.51 Q 210.411 56.457 210.338 55.696 A 1.737 1.737 0 0 1 210.33 55.53 A 3.086 3.086 0 0 1 210.416 54.903 Q 210.751 53.373 212.4 49.5 Q 213.03 47.97 213.705 46.485 Q 214.38 45 215.01 43.56 Z M 271.8 43.56 L 266.4 49.23 L 265.32 50.31 Q 264.442 51.189 263.906 51.21 A 0.664 0.664 0 0 1 263.88 51.21 A 0.447 0.447 0 0 1 263.663 51.161 Q 263.479 51.06 263.441 50.757 A 1.398 1.398 0 0 1 263.43 50.58 A 0.674 0.674 0 0 1 263.443 50.458 Q 263.471 50.304 263.565 50.085 A 1.383 1.383 0 0 1 263.678 49.878 Q 263.839 49.631 264.15 49.32 Q 265.5 47.97 266.94 46.44 Q 268.38 44.91 269.91 42.93 A 129.189 129.189 0 0 0 270.56 42.072 Q 271.297 41.092 272.308 39.717 A 567.892 567.892 0 0 0 273.285 38.385 A 355.007 355.007 0 0 0 274.452 36.779 Q 276.241 34.305 278.574 31.001 A 993.377 993.377 0 0 0 278.73 30.78 A 3.173 3.173 0 0 1 281.03 29.457 A 4.381 4.381 0 0 1 281.52 29.43 A 2.736 2.736 0 0 1 282.221 29.512 Q 283.116 29.75 283.282 30.68 A 2.62 2.62 0 0 1 283.32 31.14 A 0.908 0.908 0 0 1 283.248 31.409 Q 282.819 32.546 279.816 37.669 A 419.077 419.077 0 0 1 278.73 39.51 A 559.855 559.855 0 0 0 277.619 41.485 Q 276.041 44.303 274.995 46.26 A 50.76 50.76 0 0 0 274.362 47.481 Q 273.79 48.626 273.48 49.428 A 8.336 8.336 0 0 0 273.24 50.13 Q 275.22 47.97 277.965 45.27 A 237.254 237.254 0 0 1 280.726 42.601 Q 282.189 41.208 283.836 39.68 A 398.488 398.488 0 0 1 284.31 39.24 A 149.592 149.592 0 0 1 288.196 35.753 Q 296.038 28.98 298.89 28.98 A 3.253 3.253 0 0 1 300.32 29.32 A 4.234 4.234 0 0 1 300.825 29.61 Q 301.77 30.24 301.77 31.23 Q 301.77 31.623 299.091 36.345 A 369.381 369.381 0 0 1 298.26 37.8 A 315.866 315.866 0 0 0 297.085 39.952 Q 295.058 43.702 294.583 44.895 A 3.884 3.884 0 0 0 294.48 45.18 A 4055.539 4055.539 0 0 0 296.822 43.217 Q 304.267 36.969 304.465 36.729 A 0.021 0.021 0 0 0 304.47 36.72 A 78.993 78.993 0 0 1 307.943 34.16 Q 313.04 30.633 315.884 30.208 A 4.996 4.996 0 0 1 316.62 30.15 A 3.379 3.379 0 0 1 318.496 30.723 A 4.179 4.179 0 0 1 318.645 30.825 Q 319.32 31.307 319.513 31.904 A 1.603 1.603 0 0 1 319.59 32.4 Q 319.59 32.557 315.232 38.161 A 1295.845 1295.845 0 0 1 313.83 39.96 A 60.063 60.063 0 0 0 311.043 43.738 Q 307.699 48.697 307.17 52.2 Q 306.841 55.167 309.906 55.417 A 7.307 7.307 0 0 0 310.5 55.44 A 5.038 5.038 0 0 0 311.908 55.212 Q 313.294 54.805 315.136 53.669 A 30.668 30.668 0 0 0 316.8 52.56 A 38.938 38.938 0 0 0 320.38 49.657 Q 322.762 47.495 325.26 44.64 Q 325.8 44.01 326.43 43.425 A 3.805 3.805 0 0 1 326.734 43.169 Q 327.056 42.928 327.323 42.864 A 0.799 0.799 0 0 1 327.51 42.84 A 0.947 0.947 0 0 1 327.711 42.86 Q 328.05 42.933 328.05 43.29 Q 328.05 43.92 327.24 44.73 A 56.548 56.548 0 0 1 324.686 47.565 A 74.158 74.158 0 0 1 321.705 50.49 A 50.483 50.483 0 0 1 318.125 53.532 A 40.132 40.132 0 0 1 315.36 55.485 A 17.199 17.199 0 0 1 313.462 56.553 Q 311.451 57.51 309.78 57.51 A 9.58 9.58 0 0 1 307.433 57.249 Q 304.383 56.475 303.799 53.418 A 8.413 8.413 0 0 1 303.66 51.84 A 9.007 9.007 0 0 1 303.835 50.138 Q 304.095 48.792 304.74 47.205 Q 305.82 44.55 306.9 42.39 A 60.38 60.38 0 0 1 310.158 36.818 A 48.935 48.935 0 0 1 312.57 33.48 A 34.219 34.219 0 0 0 309.447 35.264 A 45.444 45.444 0 0 0 306.585 37.26 A 68.199 68.199 0 0 0 303.021 40.149 A 87.264 87.264 0 0 0 300.15 42.75 Q 292.41 50.31 289.53 58.05 Q 289.089 58.756 288.042 58.77 A 3.185 3.185 0 0 1 288 58.77 A 2.742 2.742 0 0 1 287.106 58.637 Q 285.84 58.201 285.84 56.34 A 36.109 36.109 0 0 1 287.044 51.863 Q 287.784 49.649 288.852 47.235 A 69.087 69.087 0 0 1 289.89 45 Q 291.33 41.94 292.815 38.97 Q 294.3 36 295.74 32.94 Q 292.41 35.19 289.08 37.935 A 64.152 64.152 0 0 0 283.589 43.048 A 71.959 71.959 0 0 0 282.6 44.1 Q 278.91 48.06 274.05 54.27 Q 270.54 58.68 270 58.68 A 2.331 2.331 0 0 1 268.194 57.847 A 3.493 3.493 0 0 1 267.93 57.51 Q 267.201 56.457 267.128 55.696 A 1.737 1.737 0 0 1 267.12 55.53 A 3.086 3.086 0 0 1 267.206 54.903 Q 267.541 53.373 269.19 49.5 Q 269.82 47.97 270.495 46.485 Q 271.17 45 271.8 43.56 Z M 135.733 58.986 A 6.655 6.655 0 0 0 136.62 59.04 A 0.496 0.496 0 0 0 136.821 58.99 Q 137.163 58.836 137.708 58.208 A 11.385 11.385 0 0 0 138.06 57.78 A 39.382 39.382 0 0 0 138.539 57.157 Q 138.95 56.612 139.403 55.977 A 79.145 79.145 0 0 0 140.31 54.675 A 175.199 175.199 0 0 1 141.548 52.886 A 148.214 148.214 0 0 1 142.74 51.21 A 76.251 76.251 0 0 1 148.488 45.014 A 61.468 61.468 0 0 1 163.62 34.2 L 160.92 38.52 Q 159.57 40.68 158.31 42.84 Q 156.083 46.738 155.387 49.616 A 10.286 10.286 0 0 0 155.07 52.02 A 13.364 13.364 0 0 0 155.086 52.688 Q 155.293 56.809 158.12 57.866 A 6.439 6.439 0 0 0 160.38 58.23 Q 161.46 58.23 163.665 56.745 Q 164.802 55.98 166.011 55.022 A 52.712 52.712 0 0 0 168.345 53.055 A 103.182 103.182 0 0 0 169.56 51.956 A 89.917 89.917 0 0 0 172.935 48.69 Q 174.389 47.205 175.354 46.103 A 27.419 27.419 0 0 0 176.13 45.18 A 6.786 6.786 0 0 0 176.205 45.076 Q 176.605 44.503 176.757 44.023 A 1.833 1.833 0 0 0 176.85 43.47 A 0.53 0.53 0 0 0 176.835 43.337 Q 176.792 43.174 176.633 43.128 A 0.518 0.518 0 0 0 176.49 43.11 Q 176.04 43.11 175.23 43.92 Q 174.33 45 172.575 46.935 Q 170.82 48.87 168.66 50.85 A 35.962 35.962 0 0 1 166.913 52.355 A 28.464 28.464 0 0 1 164.385 54.18 A 13.021 13.021 0 0 1 163.188 54.863 Q 162.534 55.189 161.935 55.376 A 5.322 5.322 0 0 1 160.65 55.62 A 2.145 2.145 0 0 1 160.543 55.618 Q 159.414 55.561 159.181 54.293 A 4.127 4.127 0 0 1 159.12 53.55 A 5.683 5.683 0 0 1 159.134 53.159 Q 159.344 50.116 162.746 44.946 A 65.418 65.418 0 0 1 165.06 41.67 A 3654.044 3654.044 0 0 1 165.18 41.508 Q 168.42 37.131 170.01 35.01 A 38.479 38.479 0 0 0 170.031 34.983 Q 171.281 33.312 171.554 32.565 A 1.052 1.052 0 0 0 171.63 32.22 Q 171.63 29.88 169.11 29.88 A 0.528 0.528 0 0 0 169.082 29.881 Q 168.983 29.886 168.75 29.925 A 4.255 4.255 0 0 1 168.586 29.949 Q 168.423 29.97 168.3 29.97 Q 167.22 30.105 165.482 30.924 A 27.28 27.28 0 0 0 164.25 31.545 A 45.985 45.985 0 0 0 163.207 32.121 Q 162.032 32.788 160.742 33.605 A 84.42 84.42 0 0 0 158.4 35.145 A 367.307 367.307 0 0 0 157.587 35.7 A 407.231 407.231 0 0 0 151.74 39.78 Q 148.32 42.21 145.35 44.37 Q 145.825 43.013 147.451 40.454 A 72.334 72.334 0 0 1 148.635 38.655 Q 150.626 35.719 153.807 31.593 A 293.852 293.852 0 0 1 156.06 28.71 Q 163.446 19.131 165.009 16.087 A 3.827 3.827 0 0 0 165.42 15.03 Q 165.06 13.14 163.89 13.14 A 0.368 0.368 0 0 0 163.811 13.149 A 0.433 0.433 0 0 0 163.71 13.185 Q 163.645 13.218 163.534 13.227 A 1.158 1.158 0 0 1 163.44 13.23 Q 159.857 14.4 152.115 25.968 A 215.87 215.87 0 0 0 148.32 31.86 Q 146.745 34.335 144.871 37.496 A 347.71 347.71 0 0 0 142.515 41.535 Q 140.667 44.75 138.549 48.491 A 1789.646 1789.646 0 0 0 135.09 54.63 A 22.85 22.85 0 0 0 135.02 54.76 Q 134.279 56.139 134.082 56.974 A 2.366 2.366 0 0 0 134.01 57.51 A 1.253 1.253 0 0 0 134.338 58.403 Q 134.762 58.855 135.733 58.986 Z M 99.9 47.7 L 112.32 33.12 A 9.624 9.624 0 0 1 113.885 31.653 Q 115.565 30.42 117.45 30.42 A 3.88 3.88 0 0 1 118.206 30.487 Q 119.52 30.749 119.52 32.04 A 1.482 1.482 0 0 1 119.265 32.864 A 2.174 2.174 0 0 1 118.98 33.21 A 32.375 32.375 0 0 0 117.837 34.355 Q 116.586 35.665 115.02 37.532 A 105.156 105.156 0 0 0 114.795 37.8 Q 112.32 40.77 109.98 44.19 A 66.705 66.705 0 0 0 107.831 47.531 A 51.356 51.356 0 0 0 106.065 50.715 Q 104.681 53.444 104.513 55.234 A 5.106 5.106 0 0 0 104.49 55.71 A 3.595 3.595 0 0 0 104.531 56.281 Q 104.693 57.282 105.492 57.328 A 1.363 1.363 0 0 0 105.57 57.33 A 2.472 2.472 0 0 0 105.956 57.295 Q 106.361 57.23 106.941 57.045 A 15.279 15.279 0 0 0 107.55 56.835 Q 108.673 56.424 110.418 55.265 A 36.016 36.016 0 0 0 111.15 54.765 A 21.778 21.778 0 0 0 112.644 53.609 Q 114.269 52.247 116.264 50.161 A 73.951 73.951 0 0 0 116.55 49.86 A 10.945 10.945 0 0 0 116.816 49.582 Q 117.472 48.875 119.137 46.959 A 434.145 434.145 0 0 0 119.43 46.62 A 109.707 109.707 0 0 0 120.701 45.124 Q 122.117 43.43 123.963 41.114 A 407.092 407.092 0 0 0 125.73 38.88 Q 132.408 30.576 134.688 30.171 A 1.272 1.272 0 0 1 134.91 30.15 A 5.384 5.384 0 0 1 136.08 30.267 Q 137.754 30.64 138.092 32.217 A 3.669 3.669 0 0 1 138.15 32.58 A 0.357 0.357 0 0 1 138.158 32.658 Q 138.158 33.586 134.37 37.89 Q 129.24 44.1 127.35 46.8 Q 123.84 51.93 123.84 54.81 Q 123.84 56.731 125.111 56.788 A 1.761 1.761 0 0 0 125.19 56.79 A 3.754 3.754 0 0 0 126.146 56.653 Q 127.054 56.413 128.209 55.751 A 15.959 15.959 0 0 0 128.655 55.485 Q 130.737 54.201 133.037 52.218 A 48.009 48.009 0 0 0 133.11 52.155 Q 135.45 50.13 137.655 47.925 A 87.475 87.475 0 0 0 139.654 45.863 Q 140.583 44.871 141.375 43.952 A 52.508 52.508 0 0 0 141.48 43.83 Q 142.02 43.2 142.56 43.2 Q 142.989 43.2 143.077 43.54 A 0.796 0.796 0 0 1 143.1 43.74 A 1.071 1.071 0 0 1 143.093 43.856 Q 143.081 43.97 143.046 44.128 A 5.245 5.245 0 0 1 143.01 44.28 Q 142.926 44.617 142.527 45.032 A 4.039 4.039 0 0 1 142.47 45.09 Q 141.102 46.63 139.002 48.86 A 326.369 326.369 0 0 1 138.78 49.095 A 80.114 80.114 0 0 1 134.567 53.235 A 88.611 88.611 0 0 1 133.92 53.82 Q 131.31 56.16 128.88 57.69 Q 126.606 59.122 124.963 59.214 A 3.985 3.985 0 0 1 124.74 59.22 A 6.403 6.403 0 0 1 122.693 58.903 A 5.624 5.624 0 0 1 121.14 58.095 A 3.575 3.575 0 0 1 119.637 55.501 A 4.719 4.719 0 0 1 119.61 54.99 A 13.283 13.283 0 0 1 120.123 51.38 A 15.056 15.056 0 0 1 120.24 50.985 Q 120.87 48.96 121.23 47.52 A 96.361 96.361 0 0 1 118.687 50.385 Q 117.346 51.834 116.126 53.007 A 38.683 38.683 0 0 1 113.805 55.08 A 43.343 43.343 0 0 1 111.954 56.516 Q 109.952 57.978 108.45 58.635 Q 106.58 59.453 105.385 59.563 A 3.88 3.88 0 0 1 105.03 59.58 A 4.508 4.508 0 0 1 103.235 59.25 Q 100.98 58.278 100.98 54.45 Q 100.98 53.013 101.62 51.172 A 19.052 19.052 0 0 1 102.195 49.725 A 26.145 26.145 0 0 1 103.615 46.992 Q 104.389 45.685 105.374 44.313 A 43.601 43.601 0 0 1 105.66 43.92 L 104.04 45.45 A 43.976 43.976 0 0 0 102.762 46.712 Q 101.644 47.858 100.35 49.32 Q 99.99 49.68 99.45 49.68 Q 99.125 49.68 99.094 49.314 A 0.97 0.97 0 0 1 99.09 49.23 A 0.848 0.848 0 0 1 99.139 48.971 Q 99.27 48.574 99.749 47.907 A 12.089 12.089 0 0 1 99.9 47.7 Z M 540.36 51.48 A 20.837 20.837 0 0 0 540.364 51.878 Q 540.494 58.68 545.13 58.68 A 11.425 11.425 0 0 0 548.959 58.006 A 14.911 14.911 0 0 0 552.105 56.43 A 25.662 25.662 0 0 0 554.737 54.466 A 30.719 30.719 0 0 0 558.54 50.58 A 35.349 35.349 0 0 0 559.438 49.446 A 30.893 30.893 0 0 0 563.22 43.02 A 18.697 18.697 0 0 0 564.512 45.592 Q 565.292 46.866 566.182 47.725 A 5.826 5.826 0 0 0 570.33 49.5 A 5.736 5.736 0 0 0 572.504 49.066 Q 573.541 48.646 574.545 47.817 A 12.709 12.709 0 0 0 576.18 46.17 A 7.45 7.45 0 0 0 576.48 45.728 Q 576.745 45.301 576.843 44.98 A 1.179 1.179 0 0 0 576.9 44.64 A 1.454 1.454 0 0 0 576.861 44.451 Q 576.826 44.327 576.771 44.238 A 0.454 0.454 0 0 0 576.36 44.01 Q 575.82 44.01 575.28 44.64 Q 573.557 46.541 572.109 47.188 A 3.485 3.485 0 0 1 570.69 47.52 A 3.386 3.386 0 0 1 568.234 46.469 A 5.713 5.713 0 0 1 567.405 45.405 A 14.008 14.008 0 0 1 566.53 43.76 A 10.748 10.748 0 0 1 565.74 41.22 Q 566.01 40.073 566.457 38.52 A 102.44 102.44 0 0 1 566.775 37.44 Q 567.45 35.19 567.45 32.94 A 7.364 7.364 0 0 0 567.45 32.909 Q 567.448 32.42 567.381 31.987 A 4.463 4.463 0 0 0 567.135 31.05 A 1.792 1.792 0 0 0 567.097 30.96 Q 566.768 30.235 565.92 30.15 A 6.127 6.127 0 0 0 565.648 30.114 Q 561.33 29.634 561.33 36.18 Q 561.33 38.97 561.96 40.86 Q 561.618 42.113 560.88 43.6 A 26.772 26.772 0 0 1 559.89 45.405 Q 558.36 47.97 556.2 50.4 Q 554.04 52.83 551.7 54.45 Q 550.475 55.298 549.324 55.702 A 6.124 6.124 0 0 1 547.29 56.07 A 1.872 1.872 0 0 1 545.89 55.47 A 2.937 2.937 0 0 1 545.445 54.855 A 5.903 5.903 0 0 1 545.034 53.95 A 4.436 4.436 0 0 1 544.77 52.47 A 6.073 6.073 0 0 1 544.817 51.734 Q 545.205 48.564 548.78 43.035 A 80.074 80.074 0 0 1 551.34 39.33 Q 553.68 36.18 556.74 32.58 Q 559.8 28.98 563.58 24.84 A 2847.526 2847.526 0 0 1 564.203 24.166 Q 570.072 17.819 570.149 17.819 A 0.001 0.001 0 0 1 570.15 17.82 A 1.935 1.935 0 0 0 569.724 16.577 A 2.552 2.552 0 0 0 569.16 16.065 A 4.419 4.419 0 0 0 568.801 15.844 A 3.504 3.504 0 0 0 567.09 15.39 Q 561.51 15.39 550.8 30.78 Q 542.807 42.288 540.934 48.308 A 10.949 10.949 0 0 0 540.36 51.48 Z M 381.87 47.16 L 374.58 54.45 Q 372.15 56.88 370.125 57.96 A 12.553 12.553 0 0 1 368.917 58.53 Q 367.65 59.04 366.66 59.04 Q 363.96 59.04 362.07 57.555 A 6.169 6.169 0 0 1 360.745 56.154 A 5.097 5.097 0 0 1 359.91 53.91 A 10.623 10.623 0 0 1 359.828 52.591 Q 359.828 50.78 360.447 48.95 A 13.377 13.377 0 0 1 360.765 48.105 A 23.578 23.578 0 0 1 363.334 43.501 A 26.941 26.941 0 0 1 364.095 42.48 Q 366.21 39.78 368.64 37.44 A 53.484 53.484 0 0 1 373.292 33.266 Q 378.76 28.952 383.541 28.106 A 13.13 13.13 0 0 1 385.83 27.9 Q 388.44 27.9 389.34 29.25 A 1.748 1.748 0 0 1 389.514 29.525 Q 389.758 29.989 390.038 30.93 A 21.864 21.864 0 0 1 390.15 31.32 A 169.524 169.524 0 0 1 393.645 25.858 Q 400.386 15.793 403.66 15.007 A 2.27 2.27 0 0 1 404.19 14.94 A 4.054 4.054 0 0 1 405.261 15.091 A 5.463 5.463 0 0 1 406.08 15.39 A 2.764 2.764 0 0 1 406.502 15.624 Q 406.71 15.767 406.842 15.932 A 0.979 0.979 0 0 1 407.07 16.56 A 1.216 1.216 0 0 1 407.026 16.868 Q 406.951 17.153 406.747 17.516 A 5.315 5.315 0 0 1 406.62 17.73 Q 403.92 21.06 401.22 24.345 Q 398.52 27.63 395.91 30.96 Q 391.5 36.54 388.8 40.68 A 68.433 68.433 0 0 0 387.262 43.145 Q 385.747 45.7 384.943 47.669 A 20.564 20.564 0 0 0 384.93 47.7 A 12.17 12.17 0 0 0 384.645 48.498 Q 384.518 48.893 384.398 49.344 A 23.575 23.575 0 0 0 384.255 49.905 Q 383.94 51.21 383.94 52.56 Q 383.94 54.27 384.66 55.53 Q 385.351 56.739 387.117 56.788 A 5.459 5.459 0 0 0 387.27 56.79 A 7.975 7.975 0 0 0 389.472 56.45 Q 391.421 55.888 393.807 54.397 A 30.51 30.51 0 0 0 394.56 53.91 A 31.965 31.965 0 0 0 397.55 51.623 Q 400.556 49.057 404.129 45.039 A 109.928 109.928 0 0 0 404.64 44.46 Q 405 44.1 405.315 43.83 A 1.787 1.787 0 0 1 405.684 43.583 A 1.515 1.515 0 0 1 405.99 43.47 A 2.248 2.248 0 0 1 406.123 43.445 Q 406.8 43.337 406.8 43.83 A 0.486 0.486 0 0 1 406.77 43.982 Q 406.674 44.269 406.26 44.82 A 76.888 76.888 0 0 1 401.311 50.172 A 86.952 86.952 0 0 1 400.05 51.39 A 42.948 42.948 0 0 1 395.832 54.921 A 35.369 35.369 0 0 1 393.075 56.745 Q 390.258 58.421 387.752 58.769 A 9.388 9.388 0 0 1 386.46 58.86 A 7.061 7.061 0 0 1 384.841 58.687 Q 383.036 58.262 382.14 56.79 A 8.705 8.705 0 0 1 380.891 52.595 A 10.511 10.511 0 0 1 380.88 52.11 A 12.83 12.83 0 0 1 381.286 48.836 A 11.269 11.269 0 0 1 381.87 47.16 Z M 192.33 48.96 L 186.75 54.36 Q 185.096 56.014 183.656 57.048 A 13.004 13.004 0 0 1 182.205 57.96 Q 180.18 59.04 178.92 59.04 Q 176.76 59.04 174.6 57.51 Q 172.826 56.253 172.327 54.632 A 4.372 4.372 0 0 1 172.17 53.91 A 9.337 9.337 0 0 1 172.093 52.707 Q 172.093 46.165 180.9 37.44 A 53.484 53.484 0 0 1 185.552 33.266 Q 191.02 28.952 195.801 28.106 A 13.13 13.13 0 0 1 198.09 27.9 A 6.979 6.979 0 0 1 199.379 28.012 Q 200.553 28.233 201.33 28.89 A 3.327 3.327 0 0 1 201.911 29.687 Q 202.1 30.043 202.237 30.475 A 5.752 5.752 0 0 1 202.275 30.6 Q 202.59 31.68 202.77 31.68 A 1.626 1.626 0 0 0 203.088 31.651 A 1.233 1.233 0 0 0 203.4 31.545 A 1.257 1.257 0 0 1 203.768 31.43 A 1.673 1.673 0 0 1 204.03 31.41 A 2.576 2.576 0 0 1 205.868 32.169 A 3.382 3.382 0 0 1 205.92 32.22 A 5.475 5.475 0 0 1 206.3 32.638 Q 206.754 33.198 206.82 33.66 A 0.017 0.017 0 0 1 206.822 33.668 Q 206.822 33.933 202.463 40.472 A 1035.66 1035.66 0 0 1 201.06 42.57 A 80.043 80.043 0 0 0 199.24 45.344 Q 195.353 51.565 195.739 54.115 A 2.723 2.723 0 0 0 195.75 54.18 A 4.534 4.534 0 0 0 195.999 54.987 Q 196.179 55.411 196.433 55.693 A 1.668 1.668 0 0 0 197.73 56.25 A 5.469 5.469 0 0 0 200.248 55.456 Q 205.059 52.833 214.197 41.556 A 208.778 208.778 0 0 0 214.83 40.77 Q 215.1 40.41 215.37 40.41 A 0.447 0.447 0 0 1 215.587 40.46 Q 215.771 40.56 215.81 40.863 A 1.398 1.398 0 0 1 215.82 41.04 A 1.698 1.698 0 0 1 215.733 41.551 Q 215.554 42.115 215.01 42.84 A 115.583 115.583 0 0 1 210.586 48.457 Q 202.337 58.23 197.46 58.23 A 4.322 4.322 0 0 1 195.933 57.961 A 5.072 5.072 0 0 1 195.93 57.96 A 6.682 6.682 0 0 1 193.758 56.646 Q 191.97 54.983 191.97 52.02 Q 191.97 50.49 192.33 48.96 Z M 342.99 48.96 L 337.41 54.36 Q 335.756 56.014 334.316 57.048 A 13.004 13.004 0 0 1 332.865 57.96 Q 330.84 59.04 329.58 59.04 Q 327.42 59.04 325.26 57.51 Q 323.486 56.253 322.987 54.632 A 4.372 4.372 0 0 1 322.83 53.91 A 9.337 9.337 0 0 1 322.753 52.707 Q 322.753 46.165 331.56 37.44 A 53.484 53.484 0 0 1 336.212 33.266 Q 341.68 28.952 346.461 28.106 A 13.13 13.13 0 0 1 348.75 27.9 A 6.979 6.979 0 0 1 350.039 28.012 Q 351.213 28.233 351.99 28.89 A 3.327 3.327 0 0 1 352.571 29.687 Q 352.76 30.043 352.897 30.475 A 5.752 5.752 0 0 1 352.935 30.6 Q 353.25 31.68 353.43 31.68 A 1.626 1.626 0 0 0 353.748 31.651 A 1.233 1.233 0 0 0 354.06 31.545 A 1.257 1.257 0 0 1 354.428 31.43 A 1.673 1.673 0 0 1 354.69 31.41 A 2.576 2.576 0 0 1 356.528 32.169 A 3.382 3.382 0 0 1 356.58 32.22 A 5.475 5.475 0 0 1 356.96 32.638 Q 357.414 33.198 357.48 33.66 A 0.017 0.017 0 0 1 357.482 33.668 Q 357.482 33.933 353.123 40.472 A 1035.66 1035.66 0 0 1 351.72 42.57 A 80.043 80.043 0 0 0 349.9 45.344 Q 346.013 51.565 346.399 54.115 A 2.723 2.723 0 0 0 346.41 54.18 A 4.534 4.534 0 0 0 346.659 54.987 Q 346.839 55.411 347.093 55.693 A 1.668 1.668 0 0 0 348.39 56.25 A 5.469 5.469 0 0 0 350.908 55.456 Q 355.719 52.833 364.857 41.556 A 208.778 208.778 0 0 0 365.49 40.77 Q 365.76 40.41 366.03 40.41 A 0.447 0.447 0 0 1 366.247 40.46 Q 366.431 40.56 366.47 40.863 A 1.398 1.398 0 0 1 366.48 41.04 A 1.698 1.698 0 0 1 366.393 41.551 Q 366.214 42.115 365.67 42.84 A 115.583 115.583 0 0 1 361.246 48.457 Q 352.997 58.23 348.12 58.23 A 4.322 4.322 0 0 1 346.593 57.961 A 5.072 5.072 0 0 1 346.59 57.96 A 6.682 6.682 0 0 1 344.418 56.646 Q 342.63 54.983 342.63 52.02 Q 342.63 50.49 342.99 48.96 Z M 523.17 48.96 L 517.59 54.36 Q 515.936 56.014 514.496 57.048 A 13.004 13.004 0 0 1 513.045 57.96 Q 511.02 59.04 509.76 59.04 Q 507.6 59.04 505.44 57.51 Q 503.666 56.253 503.167 54.632 A 4.372 4.372 0 0 1 503.01 53.91 A 9.337 9.337 0 0 1 502.933 52.707 Q 502.933 46.165 511.74 37.44 A 53.484 53.484 0 0 1 516.392 33.266 Q 521.86 28.952 526.641 28.106 A 13.13 13.13 0 0 1 528.93 27.9 A 6.979 6.979 0 0 1 530.219 28.012 Q 531.393 28.233 532.17 28.89 A 3.327 3.327 0 0 1 532.751 29.687 Q 532.94 30.043 533.077 30.475 A 5.752 5.752 0 0 1 533.115 30.6 Q 533.43 31.68 533.61 31.68 A 1.626 1.626 0 0 0 533.928 31.651 A 1.233 1.233 0 0 0 534.24 31.545 A 1.257 1.257 0 0 1 534.608 31.43 A 1.673 1.673 0 0 1 534.87 31.41 A 2.576 2.576 0 0 1 536.708 32.169 A 3.382 3.382 0 0 1 536.76 32.22 A 5.475 5.475 0 0 1 537.14 32.638 Q 537.594 33.198 537.66 33.66 A 0.017 0.017 0 0 1 537.662 33.668 Q 537.662 33.933 533.303 40.472 A 1035.66 1035.66 0 0 1 531.9 42.57 A 80.043 80.043 0 0 0 530.08 45.344 Q 526.193 51.565 526.579 54.115 A 2.723 2.723 0 0 0 526.59 54.18 A 4.534 4.534 0 0 0 526.839 54.987 Q 527.019 55.411 527.273 55.693 A 1.668 1.668 0 0 0 528.57 56.25 A 5.469 5.469 0 0 0 531.088 55.456 Q 535.899 52.833 545.037 41.556 A 208.778 208.778 0 0 0 545.67 40.77 Q 545.94 40.41 546.21 40.41 A 0.447 0.447 0 0 1 546.427 40.46 Q 546.611 40.56 546.65 40.863 A 1.398 1.398 0 0 1 546.66 41.04 A 1.698 1.698 0 0 1 546.573 41.551 Q 546.394 42.115 545.85 42.84 A 115.583 115.583 0 0 1 541.426 48.457 Q 533.177 58.23 528.3 58.23 A 4.322 4.322 0 0 1 526.773 57.961 A 5.072 5.072 0 0 1 526.77 57.96 A 6.682 6.682 0 0 1 524.598 56.646 Q 522.81 54.983 522.81 52.02 Q 522.81 50.49 523.17 48.96 Z M 647.37 15.93 L 641.07 24.39 Q 637.38 29.34 634.41 33.525 A 272.574 272.574 0 0 0 631.966 37.023 Q 630.863 38.631 629.904 40.087 A 156.277 156.277 0 0 0 629.28 41.04 Q 628.272 42.637 627.028 44.625 A 1336.748 1336.748 0 0 0 626.85 44.91 Q 625.5 47.07 624.465 49.365 A 11.54 11.54 0 0 0 623.512 52.688 A 10.567 10.567 0 0 0 623.43 54 Q 623.43 55.08 624.06 55.935 A 1.878 1.878 0 0 0 624.903 56.563 Q 625.225 56.691 625.63 56.747 A 4.985 4.985 0 0 0 626.31 56.79 A 7.329 7.329 0 0 0 628.286 56.487 Q 630.126 55.968 632.48 54.563 A 34.651 34.651 0 0 0 633.87 53.685 A 36.627 36.627 0 0 0 638.383 50.118 Q 640.475 48.196 642.548 45.788 A 62.541 62.541 0 0 0 643.14 45.09 Q 643.59 44.55 644.13 44.1 Q 644.67 43.65 645.03 43.65 A 0.531 0.531 0 0 1 645.224 43.683 Q 645.48 43.783 645.48 44.19 A 0.47 0.47 0 0 1 645.449 44.341 Q 645.364 44.582 645.048 45.02 A 9.548 9.548 0 0 1 644.895 45.225 Q 644.447 45.811 644.131 46.212 A 39.476 39.476 0 0 1 643.95 46.44 L 641.79 48.87 A 66.866 66.866 0 0 1 639.954 50.806 Q 638.83 51.947 637.515 53.19 A 29.585 29.585 0 0 1 632.998 56.721 A 27.06 27.06 0 0 1 632.295 57.15 Q 629.55 58.77 626.76 58.77 Q 624.15 58.77 621.9 57.465 A 4.326 4.326 0 0 1 619.75 54.313 A 6.981 6.981 0 0 1 619.65 53.1 A 14.981 14.981 0 0 1 620.074 49.7 Q 620.45 48.094 621.157 46.309 A 36.899 36.899 0 0 1 622.665 43.02 A 174.852 174.852 0 0 1 626.768 35.532 A 208.087 208.087 0 0 1 629.55 30.87 A 165.66 165.66 0 0 1 633.265 25.086 Q 640.608 14.207 644.207 13.787 A 2.441 2.441 0 0 1 644.49 13.77 Q 645.326 13.77 646.202 14.353 A 4.959 4.959 0 0 1 646.335 14.445 Q 647.28 15.12 647.37 15.93 Z M 578.25 59.76 Q 575.37 59.76 573.03 57.915 A 5.859 5.859 0 0 1 570.718 53.665 A 7.516 7.516 0 0 1 570.69 53.01 A 12.994 12.994 0 0 1 571.701 48.185 Q 573.258 44.293 577.209 39.851 A 53.76 53.76 0 0 1 578.52 38.43 Q 585.177 31.549 590.653 30.386 A 10.469 10.469 0 0 1 592.83 30.15 Q 594.9 30.15 596.205 31.275 A 3.928 3.928 0 0 1 597.074 32.313 A 3.408 3.408 0 0 1 597.51 34.02 A 7.308 7.308 0 0 1 596.251 37.989 Q 594.671 40.46 591.11 42.887 A 36.273 36.273 0 0 1 589.5 43.92 A 44.169 44.169 0 0 1 585.679 46.009 Q 581.549 47.988 578.334 48.212 A 11.587 11.587 0 0 1 577.53 48.24 A 4.891 4.891 0 0 1 576.935 48.206 Q 576.574 48.161 576.27 48.06 Q 574.92 50.49 574.92 53.19 A 7.178 7.178 0 0 0 575.129 55.007 Q 575.737 57.323 578.111 57.766 A 6.662 6.662 0 0 0 579.33 57.87 Q 583.83 57.87 590.94 51.84 A 61.38 61.38 0 0 0 597.17 46.117 A 51.832 51.832 0 0 0 600.3 42.48 A 5.665 5.665 0 0 1 600.646 42.059 Q 601.248 41.4 601.74 41.4 Q 602.169 41.4 602.257 41.74 A 0.796 0.796 0 0 1 602.28 41.94 A 1.179 1.179 0 0 1 602.223 42.28 Q 602.125 42.601 601.86 43.028 A 7.45 7.45 0 0 1 601.56 43.47 Q 599.04 46.8 596.16 49.59 Q 593.28 52.38 589.95 54.72 Q 583.883 59.133 579.472 59.682 A 9.882 9.882 0 0 1 578.25 59.76 Z M 601.38 59.76 Q 598.5 59.76 596.16 57.915 A 5.859 5.859 0 0 1 593.848 53.665 A 7.516 7.516 0 0 1 593.82 53.01 A 12.994 12.994 0 0 1 594.831 48.185 Q 596.388 44.293 600.339 39.851 A 53.76 53.76 0 0 1 601.65 38.43 Q 608.307 31.549 613.783 30.386 A 10.469 10.469 0 0 1 615.96 30.15 Q 618.03 30.15 619.335 31.275 A 3.928 3.928 0 0 1 620.204 32.313 A 3.408 3.408 0 0 1 620.64 34.02 A 7.308 7.308 0 0 1 619.381 37.989 Q 617.801 40.46 614.24 42.887 A 36.273 36.273 0 0 1 612.63 43.92 A 44.169 44.169 0 0 1 608.809 46.009 Q 604.679 47.988 601.464 48.212 A 11.587 11.587 0 0 1 600.66 48.24 A 4.891 4.891 0 0 1 600.065 48.206 Q 599.704 48.161 599.4 48.06 Q 598.05 50.49 598.05 53.19 A 7.178 7.178 0 0 0 598.259 55.007 Q 598.867 57.323 601.241 57.766 A 6.662 6.662 0 0 0 602.46 57.87 Q 606.96 57.87 614.07 51.84 A 61.38 61.38 0 0 0 620.3 46.117 A 51.832 51.832 0 0 0 623.43 42.48 A 5.665 5.665 0 0 1 623.776 42.059 Q 624.378 41.4 624.87 41.4 Q 625.299 41.4 625.387 41.74 A 0.796 0.796 0 0 1 625.41 41.94 A 1.179 1.179 0 0 1 625.353 42.28 Q 625.255 42.601 624.99 43.028 A 7.45 7.45 0 0 1 624.69 43.47 Q 622.17 46.8 619.29 49.59 Q 616.41 52.38 613.08 54.72 Q 607.013 59.133 602.602 59.682 A 9.882 9.882 0 0 1 601.38 59.76 Z M 192.33 45.63 L 201.87 32.49 Q 201.15 31.23 199.53 31.23 A 9.8 9.8 0 0 0 196.033 31.967 Q 191.335 33.78 184.68 40.05 A 56.031 56.031 0 0 0 181.243 43.5 Q 175.157 50.212 175.95 54.9 Q 176.393 57.027 178.058 57.06 A 2.663 2.663 0 0 0 178.11 57.06 Q 182.961 57.06 191.076 47.19 A 94.923 94.923 0 0 0 192.33 45.63 Z M 342.99 45.63 L 352.53 32.49 Q 351.81 31.23 350.19 31.23 A 9.8 9.8 0 0 0 346.693 31.967 Q 341.995 33.78 335.34 40.05 A 56.031 56.031 0 0 0 331.903 43.5 Q 325.817 50.212 326.61 54.9 Q 327.053 57.027 328.718 57.06 A 2.663 2.663 0 0 0 328.77 57.06 Q 333.621 57.06 341.736 47.19 A 94.923 94.923 0 0 0 342.99 45.63 Z M 523.17 45.63 L 532.71 32.49 Q 531.99 31.23 530.37 31.23 A 9.8 9.8 0 0 0 526.873 31.967 Q 522.175 33.78 515.52 40.05 A 56.031 56.031 0 0 0 512.083 43.5 Q 505.997 50.212 506.79 54.9 Q 507.233 57.027 508.898 57.06 A 2.663 2.663 0 0 0 508.95 57.06 Q 513.801 57.06 521.916 47.19 A 94.923 94.923 0 0 0 523.17 45.63 Z M 365.85 57.06 A 4.952 4.952 0 0 0 368.006 56.447 Q 371.882 54.509 378.72 46.44 A 22.164 22.164 0 0 0 378.968 46.135 Q 379.676 45.251 381.87 42.435 A 279.375 279.375 0 0 0 383.361 40.503 Q 385.043 38.305 387.323 35.257 A 1159.967 1159.967 0 0 0 389.52 32.31 A 2.085 2.085 0 0 0 388.07 31.298 A 3.498 3.498 0 0 0 387.36 31.23 Q 383.082 31.23 376.581 36.415 A 67.405 67.405 0 0 0 372.42 40.05 A 55.222 55.222 0 0 0 368.77 43.746 Q 363.6 49.548 363.6 53.82 A 6.908 6.908 0 0 0 363.686 54.962 Q 364.028 56.989 365.729 57.058 A 3 3 0 0 0 365.85 57.06 Z M 578.79 46.26 A 9.258 9.258 0 0 0 581.13 45.926 Q 583.303 45.355 586.068 43.807 A 40.675 40.675 0 0 0 587.7 42.84 A 37.197 37.197 0 0 0 590.809 40.4 A 41.454 41.454 0 0 0 591.255 40.005 A 21.306 21.306 0 0 0 592.853 38.419 A 16.268 16.268 0 0 0 594.135 36.81 A 8.683 8.683 0 0 0 594.716 35.856 Q 595.26 34.806 595.26 33.93 Q 595.26 32.814 593.54 32.763 A 5.695 5.695 0 0 0 593.37 32.76 A 5.239 5.239 0 0 0 591.681 33.081 Q 589.303 33.899 585.81 36.81 Q 583.47 38.79 581.31 41.13 Q 579.15 43.47 577.62 46.08 Q 578.16 46.26 578.79 46.26 Z M 601.92 46.26 A 9.258 9.258 0 0 0 604.26 45.926 Q 606.433 45.355 609.198 43.807 A 40.675 40.675 0 0 0 610.83 42.84 A 37.197 37.197 0 0 0 613.939 40.4 A 41.454 41.454 0 0 0 614.385 40.005 A 21.306 21.306 0 0 0 615.983 38.419 A 16.268 16.268 0 0 0 617.265 36.81 A 8.683 8.683 0 0 0 617.846 35.856 Q 618.39 34.806 618.39 33.93 Q 618.39 32.814 616.67 32.763 A 5.695 5.695 0 0 0 616.5 32.76 A 5.239 5.239 0 0 0 614.811 33.081 Q 612.433 33.899 608.94 36.81 Q 606.6 38.79 604.44 41.13 Q 602.28 43.47 600.75 46.08 Q 601.29 46.26 601.92 46.26 Z M 653.49 58.68 Q 651.96 58.68 650.835 57.735 A 3.579 3.579 0 0 1 650.173 57.017 A 2.583 2.583 0 0 1 649.71 55.53 A 2.795 2.795 0 0 1 649.944 54.343 Q 650.496 53.156 652.345 52.959 A 7.442 7.442 0 0 1 653.13 52.92 A 4.013 4.013 0 0 1 654.725 53.263 A 5.557 5.557 0 0 1 655.65 53.775 A 3.279 3.279 0 0 1 656.361 54.414 A 2.411 2.411 0 0 1 656.91 55.98 Q 656.91 56.984 655.899 57.755 A 4.297 4.297 0 0 1 655.74 57.87 Q 654.804 58.518 653.926 58.648 A 2.981 2.981 0 0 1 653.49 58.68 Z" vector-effect="non-scaling-stroke"/></g></svg>