<svg className='animate-pulse' xmlns="http://www.w3.org/2000/svg" version="1.1" xmlns:xlink="http://www.w3.org/1999/xlink" xmlns:svgjs="http://svgjs.dev/svgjs" width="1440" height="560" preserveAspectRatio="none" viewBox="0 0 1440 560"><g mask="url(&quot;#SvgjsMask1246&quot;)" fill="none"><path d="M841 218L581 478" stroke-width="8" stroke="url(&quot;#SvgjsLinearGradient1247&quot;)" stroke-linecap="round" class="BottomLeft"></path><path d="M442 196L43 595" stroke-width="10" stroke="url(&quot;#SvgjsLinearGradient1247&quot;)" stroke-linecap="round" class="BottomLeft"></path><path d="M735 17L1102 -350" stroke-width="6" stroke="url(&quot;#SvgjsLinearGradient1248&quot;)" stroke-linecap="round" class="TopRight"></path><path d="M231 281L41 471" stroke-width="8" stroke="url(&quot;#SvgjsLinearGradient1248&quot;)" stroke-linecap="round" class="TopRight"></path><path d="M1054 353L822 585" stroke-width="6" stroke="url(&quot;#SvgjsLinearGradient1247&quot;)" stroke-linecap="round" class="BottomLeft"></path><path d="M1016 338L1340 14" stroke-width="10" stroke="url(&quot;#SvgjsLinearGradient1247&quot;)" stroke-linecap="round" class="BottomLeft"></path><path d="M869 268L541 596" stroke-width="10" stroke="url(&quot;#SvgjsLinearGradient1247&quot;)" stroke-linecap="round" class="BottomLeft"></path><path d="M987 47L679 355" stroke-width="8" stroke="url(&quot;#SvgjsLinearGradient1247&quot;)" stroke-linecap="round" class="BottomLeft"></path><path d="M436 132L184 384" stroke-width="10" stroke="url(&quot;#SvgjsLinearGradient1247&quot;)" stroke-linecap="round" class="BottomLeft"></path><path d="M452 238L79 611" stroke-width="6" stroke="url(&quot;#SvgjsLinearGradient1248&quot;)" stroke-linecap="round" class="TopRight"></path><path d="M79 54L-72 205" stroke-width="8" stroke="url(&quot;#SvgjsLinearGradient1247&quot;)" stroke-linecap="round" class="BottomLeft"></path><path d="M1401 523L1102 822" stroke-width="10" stroke="url(&quot;#SvgjsLinearGradient1247&quot;)" stroke-linecap="round" class="BottomLeft"></path><path d="M528 35L321 242" stroke-width="6" stroke="url(&quot;#SvgjsLinearGradient1248&quot;)" stroke-linecap="round" class="TopRight"></path><path d="M834 481L1144 171" stroke-width="8" stroke="url(&quot;#SvgjsLinearGradient1247&quot;)" stroke-linecap="round" class="BottomLeft"></path><path d="M131 42L-94 267" stroke-width="10" stroke="url(&quot;#SvgjsLinearGradient1248&quot;)" stroke-linecap="round" class="TopRight"></path><path d="M895 86L1252 -271" stroke-width="8" stroke="url(&quot;#SvgjsLinearGradient1248&quot;)" stroke-linecap="round" class="TopRight"></path><path d="M290 130L-7 427" stroke-width="10" stroke="url(&quot;#SvgjsLinearGradient1248&quot;)" stroke-linecap="round" class="TopRight"></path><path d="M743 174L471 446" stroke-width="8" stroke="url(&quot;#SvgjsLinearGradient1248&quot;)" stroke-linecap="round" class="TopRight"></path><path d="M183 156L-45 384" stroke-width="8" stroke="url(&quot;#SvgjsLinearGradient1248&quot;)" stroke-linecap="round" class="TopRight"></path><path d="M87 454L-143 684" stroke-width="8" stroke="url(&quot;#SvgjsLinearGradient1248&quot;)" stroke-linecap="round" class="TopRight"></path><path d="M722 333L428 627" stroke-width="10" stroke="url(&quot;#SvgjsLinearGradient1247&quot;)" stroke-linecap="round" class="BottomLeft"></path><path d="M55 104L-104 263" stroke-width="8" stroke="url(&quot;#SvgjsLinearGradient1248&quot;)" stroke-linecap="round" class="TopRight"></path><path d="M734 244L577 401" stroke-width="8" stroke="url(&quot;#SvgjsLinearGradient1247&quot;)" stroke-linecap="round" class="BottomLeft"></path><path d="M570 104L401 273" stroke-width="8" stroke="url(&quot;#SvgjsLinearGradient1247&quot;)" stroke-linecap="round" class="BottomLeft"></path><path d="M81 182L-292 555" stroke-width="10" stroke="url(&quot;#SvgjsLinearGradient1247&quot;)" stroke-linecap="round" class="BottomLeft"></path><path d="M327 24L641 -290" stroke-width="8" stroke="url(&quot;#SvgjsLinearGradient1248&quot;)" stroke-linecap="round" class="TopRight"></path><path d="M294 348L590 52" stroke-width="8" stroke="url(&quot;#SvgjsLinearGradient1248&quot;)" stroke-linecap="round" class="TopRight"></path><path d="M515 233L200 548" stroke-width="6" stroke="url(&quot;#SvgjsLinearGradient1247&quot;)" stroke-linecap="round" class="BottomLeft"></path><path d="M1343 306L1756 -107" stroke-width="10" stroke="url(&quot;#SvgjsLinearGradient1247&quot;)" stroke-linecap="round" class="BottomLeft"></path><path d="M530 1L135 396" stroke-width="6" stroke="url(&quot;#SvgjsLinearGradient1248&quot;)" stroke-linecap="round" class="TopRight"></path><path d="M346 100L595 -149" stroke-width="6" stroke="url(&quot;#SvgjsLinearGradient1248&quot;)" stroke-linecap="round" class="TopRight"></path><path d="M123 442L-259 824" stroke-width="10" stroke="url(&quot;#SvgjsLinearGradient1247&quot;)" stroke-linecap="round" class="BottomLeft"></path><path d="M169 283L322 130" stroke-width="6" stroke="url(&quot;#SvgjsLinearGradient1247&quot;)" stroke-linecap="round" class="BottomLeft"></path><path d="M428 125L150 403" stroke-width="6" stroke="url(&quot;#SvgjsLinearGradient1248&quot;)" stroke-linecap="round" class="TopRight"></path><path d="M1285 393L1456 222" stroke-width="6" stroke="url(&quot;#SvgjsLinearGradient1247&quot;)" stroke-linecap="round" class="BottomLeft"></path><path d="M1281 196L1028 449" stroke-width="8" stroke="url(&quot;#SvgjsLinearGradient1248&quot;)" stroke-linecap="round" class="TopRight"></path><path d="M196 124L-222 542" stroke-width="10" stroke="url(&quot;#SvgjsLinearGradient1248&quot;)" stroke-linecap="round" class="TopRight"></path><path d="M939 388L1142 185" stroke-width="6" stroke="url(&quot;#SvgjsLinearGradient1247&quot;)" stroke-linecap="round" class="BottomLeft"></path><path d="M371 168L530 9" stroke-width="6" stroke="url(&quot;#SvgjsLinearGradient1247&quot;)" stroke-linecap="round" class="BottomLeft"></path></g><defs><mask id="SvgjsMask1246"><rect width="1440" height="560" fill="#ffffff"></rect></mask><linearGradient x1="100%" y1="0%" x2="0%" y2="100%" id="SvgjsLinearGradient1247"><stop stop-color="rgba(28, 83, 142, 0)" offset="0"></stop><stop stop-color="#1c538e" offset="1"></stop></linearGradient><linearGradient x1="0%" y1="100%" x2="100%" y2="0%" id="SvgjsLinearGradient1248"><stop stop-color="rgba(28, 83, 142, 0)" offset="0"></stop><stop stop-color="#1c538e" offset="1"></stop></linearGradient></defs></svg>